PathFileType	4	(X/Y/Z)	Patient4_TMGait_0pt7_01_right_35.trc.trc
DataRate	CameraRate	NumFrames	NumMarkers	Units	OrigDataRate	OrigDataStartFrame	OrigNumFrames
88.050314465409	88.050314465409	4	33	mm	88.050314465409	89	       141
Frame#	Time	Sacral			L.Shoulder			Chest			R.Shoulder			Neck			R.ASIS			L.ASIS			R.Thigh.Superior			R.Thigh.Lateral			R.Thigh.Inferior			R.Patella			L.Thigh.Superior			L.Thigh.Lateral			L.Thigh.Inferior			L.Patella			L.Shank.Superior			L.Shank.Lateral			L.Shank.Inferior			R.Shank.Superior			R.Shank.Lateral			R.Shank.Inferior			R.Heel			R.Midfoot.Superior			R.Midfoot.Lateral			R.Toe			L.Heel			L.Midfoot.Lateral			L.Midfoot.Superior			L.Toe			L.Elbow			L.Wrist			R.Elbow			R.Wrist			
		X1	Y1	Z1	X2	Y2	Z2	X3	Y3	Z3	X4	Y4	Z4	X5	Y5	Z5	X6	Y6	Z6	X7	Y7	Z7	X8	Y8	Z8	X9	Y9	Z9	X10	Y10	Z10	X11	Y11	Z11	X12	Y12	Z12	X13	Y13	Z13	X14	Y14	Z14	X15	Y15	Z15	X16	Y16	Z16	X17	Y17	Z17	X18	Y18	Z18	X19	Y19	Z19	X20	Y20	Z20	X21	Y21	Z21	X22	Y22	Z22	X23	Y23	Z23	X24	Y24	Z24	X25	Y25	Z25	X26	Y26	Z26	X27	Y27	Z27	X28	Y28	Z28	X29	Y29	Z29	X30	Y30	Z30	X31	Y31	Z31	X32	Y32	Z32	X33	Y33	Z33	

89	40.859428571429	851.035382930317	1012.475450140352	447.661761696047	1048.977535829530	1416.762009064234	242.317628863421	1151.198597720122	1351.906410268363	406.124017495129	1076.806779086266	1448.139132493062	573.085496963717	1059.777298787324	1488.952795622757	392.709324627711	1068.857682928404	939.289381718149	572.122939385383	1068.130640987373	952.165957994854	297.265579993995	1111.824305264722	739.594983091131	558.381060267851	1031.533363548568	629.214774077771	620.014683802860	1119.258160906659	570.459449244666	552.989513410433	1108.136804209656	458.027544269927	573.233695639853	1129.491494027083	761.213296162645	323.994688624920	1054.295042125590	639.612870207356	261.454921551856	1148.415767367653	570.705365263103	323.062065578152	1156.798188654981	500.760915100980	330.094929541537	1134.122632874241	426.790505497685	321.484768353138	1052.446753139423	306.257643225703	270.075565571877	1115.287170210605	199.289396839197	340.125412194561	1022.655524168786	396.714116178087	569.977795287785	892.690313189017	370.499341614312	617.613844568202	872.437689620285	264.703523099102	565.017424799860	666.262973502183	213.606982733061	514.682423784918	830.792858752028	158.344713843540	578.473769300455	717.583516064111	162.470525854532	599.382069241135	889.112031125505	50.343029978186	620.481443304581	996.855645321786	38.668291724704	378.638541861476	1076.324371694948	34.942186492573	302.742476259339	1155.926324809490	98.363980232449	333.504931631081	1286.786258546531	48.579624449126	317.126748613702	941.876675925338	1075.177837839604	153.833474057725	936.000518013375	814.898498987767	175.848470581589	1146.005851280351	1118.380098119959	703.229923547750	1362.117202139888	1162.246904099606	589.672711219843	
90	40.870785714286	850.024773463003	1013.712381758774	445.548995537432	1050.377610259717	1417.541798842941	240.408178112500	1150.665993862383	1353.182666753333	405.645831440657	1074.352590914685	1450.053663992071	571.496356698642	1059.316159775183	1490.313537544693	390.602863866209	1067.377315335190	940.551374574919	571.442686424597	1067.943587947673	953.823823853630	296.613443244624	1116.133361755412	744.339003501184	557.698057672638	1040.033220869749	632.209496127360	620.550549617267	1129.752022420904	575.513109037342	553.993354427069	1121.167615840675	462.041521396905	574.948636588947	1126.109427502322	760.282206021866	321.405550221584	1048.505451919479	640.180942464664	259.861346657234	1141.760030436248	569.986215672008	321.113394919123	1148.981932635410	500.297794631418	328.039288647810	1126.150269829188	426.765566999332	319.636123304489	1043.781827083712	306.279539212946	269.174202451212	1107.120865197024	199.376788329859	339.047917223428	1034.443135624452	400.713567075693	571.046491019365	902.989228140491	377.881683684109	616.686636267046	880.882729018018	272.450995758291	564.386199005326	674.432484147132	227.001038748098	510.792747833466	836.193845429372	167.080021530175	577.519353597282	722.721724287498	174.735521877964	596.705333801125	890.781821138520	56.496254053736	621.495683081581	988.824605448746	38.744481228494	378.470717296362	1068.281895635014	34.822196869321	302.588532766961	1147.959928072461	98.359214449095	333.059444675909	1278.781018182213	48.488453258154	316.966155376238	949.778458527102	1074.357451025801	149.202856237770	951.571453793871	813.862263288863	170.150690443016	1133.122789000993	1118.554595754035	703.878970254828	1352.681389458739	1149.404513351226	591.907423881094	
91	40.882142857143	848.980229380943	1014.835105867864	443.618968007214	1051.583099312383	1418.252745654979	238.731375126689	1150.005502295472	1354.352513935812	405.322907319569	1071.829284615035	1451.754513303650	570.135635355167	1058.772708313623	1491.565615076149	388.757640479600	1065.919872905323	941.712689218840	570.691986273901	1067.538163349065	955.423577043162	295.934340460972	1120.117174201427	749.193834068818	556.945911692443	1048.215655666226	635.575280420335	621.263336909136	1139.770133919924	581.004709083699	555.131565181696	1133.914745563792	466.664009347640	576.807779470984	1122.636918691681	759.502027686892	319.113699982075	1042.786116924349	640.782577416796	258.393066977599	1135.116451136027	569.315859577040	319.317987747650	1141.187718057680	499.873729473611	326.177651098125	1118.244643798485	426.772547193110	317.956915518666	1035.226141908292	306.355031707350	268.372564625036	1098.991931945267	199.481997211513	338.066550419447	1046.317298549666	405.045709833310	572.373098495705	913.642374545277	384.918044432960	616.176995876425	890.172408813537	279.756872146737	564.112239222236	683.707456511181	238.700084879775	507.630712610840	843.031211320649	175.165463749747	576.772793836707	729.450664173293	185.533655075434	594.497727028148	894.651387949880	62.783023146724	622.337973739509	980.784461683573	38.833018085397	378.303485878170	1060.236337486232	34.726150541825	302.452454053834	1139.989056189795	98.371055446314	332.648591945461	1270.765250388483	48.413367709053	316.823482799084	958.089271392632	1073.514057813820	144.769817499156	967.690251983667	813.027872509024	164.448256385816	1119.794110695269	1118.830024962482	704.655800961936	1342.484699894220	1135.726129250104	595.010426362391	
92	40.893500000000	847.909257909540	1015.860873916639	441.854543162300	1052.563863030894	1418.907766296230	237.289228384436	1149.235101315541	1355.413926555671	405.119585646750	1069.306190315301	1453.222560618067	568.999178584779	1058.172236582753	1492.698343283354	387.177035456551	1064.497447275015	942.794666590466	569.848279108249	1066.927801362057	956.932794810256	295.220857637796	1123.750714684780	754.108899946505	556.163062103322	1055.978886554229	639.251047699221	622.115828065135	1149.240296250611	586.861134232338	556.391424664334	1146.263702258029	471.824209436818	578.783209031323	1119.152842168086	758.858769029637	317.133928820661	1037.198157296153	641.385525445485	257.070557341150	1128.549957435610	568.671408437173	317.705076016836	1133.490187558420	499.473715721132	324.562083031348	1110.476447182711	426.791898231897	316.492400497052	1026.860443401010	306.471796160501	267.681464633952	1090.938176068407	199.591975865031	337.217571702332	1058.194463927672	409.627917778383	573.925771392701	924.581912957978	391.389740022156	616.146819061282	900.285975489885	286.377034148725	564.255221064279	693.996973000828	248.353506618680	505.401889837074	851.389509530664	182.254680174285	576.351394250958	737.785763800142	194.454724974816	592.917489271425	900.877830061798	68.741028045929	623.007446552031	972.741383736096	38.925206724901	378.144224528865	1052.193575467778	34.655562612705	302.337378731481	1132.013984282191	98.397160297743	332.288528543825	1262.740600708279	48.366119952063	316.701431718518	966.789618589682	1072.690920424399	140.575149449430	984.303063475380	812.455173411545	158.785208979177	1106.117781610718	1119.203533798392	705.504318306121	1331.491907402213	1121.222187146075	599.021773949940	
